<svg version="1.1" id="Layer_1" xmlns="http://www.w3.org/2000/svg" xmlns:xlink="http://www.w3.org/1999/xlink" x="0px" y="0px"
	 width="100%" viewBox="0 0 1024 1024" enable-background="new 0 0 1024 1024" xml:space="preserve">
<path fill="#000000" opacity="1.000000" stroke="none" 
	d="
M841.000000,1025.000000 
	C622.306458,1025.000000 403.612946,1025.000000 184.080994,1024.860596 
	C182.257385,1024.575317 181.276901,1024.366455 180.286346,1024.292603 
	C145.271164,1021.681152 113.519997,1009.919739 86.056740,988.221313 
	C40.378155,952.131348 16.836168,904.562622 16.786280,846.208191 
	C16.595505,623.058411 16.712097,399.908325 16.680079,176.758347 
	C16.678858,168.250946 17.080227,159.804153 18.560461,151.413437 
	C30.904173,81.443024 70.962852,34.670834 137.139816,9.806373 
	C150.305817,4.859552 164.133606,2.794760 178.000000,1.000000 
	C401.026855,1.000000 624.053711,1.000000 847.909790,1.144427 
	C874.182373,3.553904 898.245178,10.819948 920.002197,23.983952 
	C978.613098,59.446175 1008.949646,112.016197 1009.101440,180.377457 
	C1009.594727,402.517395 1009.284790,624.659119 1009.298096,846.800110 
	C1009.298645,856.475525 1008.686035,866.129089 1007.063660,875.636902 
	C999.595581,919.403259 978.864868,955.668518 944.711243,984.088684 
	C921.600891,1003.319458 895.172180,1015.640869 865.676147,1021.612854 
	C857.489502,1023.270386 849.102234,1023.012024 841.000000,1025.000000 
M984.690857,212.500092 
	C984.487061,194.523315 985.763123,176.475250 983.382812,158.593536 
	C978.499023,121.904755 962.687866,90.565681 935.290283,65.607018 
	C907.454773,40.249397 874.666809,25.508919 836.714111,25.458742 
	C622.242432,25.175188 407.770203,25.309219 193.298187,25.242552 
	C183.601990,25.239538 173.999786,25.951736 164.530853,27.898310 
	C131.693130,34.648922 103.687103,50.235909 81.121300,75.010529 
	C56.341595,102.215752 41.603260,134.307312 41.536942,171.234863 
	C41.130207,397.705048 41.311234,624.176331 41.388596,850.647217 
	C41.397186,875.795105 47.686153,899.586609 60.385384,921.210449 
	C91.150658,973.596558 137.258331,1000.007812 198.047821,1000.038330 
	C408.020782,1000.143738 617.993835,1000.090027 827.966858,1000.098145 
	C837.134216,1000.098450 846.349670,999.934998 855.351929,998.353455 
	C885.380676,993.077820 912.282837,981.016479 934.726929,960.005859 
	C967.254028,929.556030 984.601135,892.153625 984.628235,847.418640 
	C984.756226,636.112549 984.688354,424.806305 984.690857,212.500092 
z"/>
<path fill="#000000" opacity="1.000000" stroke="none" 
	d="
M682.594971,283.597046 
	C686.048523,280.191772 689.138794,276.908600 692.490906,273.919189 
	C699.023010,268.094025 706.036743,268.378174 711.660583,275.143402 
	C714.601013,278.680725 716.541748,278.577057 719.579773,275.492493 
	C751.964050,242.611511 784.427795,209.808853 816.867798,176.982727 
	C821.903564,171.886993 826.845825,166.695511 831.979004,161.700104 
	C839.926880,153.965591 846.563049,153.186493 852.401245,159.088486 
	C858.319092,165.070984 857.634705,172.616104 850.282227,180.086304 
	C836.023193,194.573547 821.651184,208.949600 807.383667,223.428543 
	C784.230469,246.925003 760.457886,269.809021 737.890137,293.888000 
	C734.625244,297.371460 734.237915,299.684814 738.170959,302.679169 
	C740.531494,304.476379 742.542236,306.782806 744.512634,309.033356 
	C750.022888,315.327148 749.750610,320.559418 743.467712,326.291992 
	C736.814026,332.362885 730.774902,339.033203 724.375854,345.346161 
	C721.103882,348.574066 721.853088,350.828094 724.813416,353.571533 
	C728.352051,356.850891 731.752380,360.301666 734.990723,363.879089 
	C750.871948,381.423431 749.957458,402.243469 732.911438,418.877319 
	C721.828125,429.692657 711.053955,440.824188 700.060303,451.732452 
	C697.675781,454.098480 696.887573,456.477509 697.883240,459.799225 
	C698.929504,463.289886 699.500549,466.939941 700.065186,470.553802 
	C700.813843,475.345551 703.389832,477.159454 708.282898,477.147491 
	C721.774597,477.114532 735.266968,476.876495 748.765686,477.499695 
	C756.683105,477.865204 761.952637,483.844391 762.083984,491.530365 
	C762.382935,509.022858 762.301941,526.525757 762.104004,544.021362 
	C761.983276,554.693359 755.985107,560.676086 745.250793,560.913025 
	C732.924194,561.185181 720.585205,561.258728 708.259033,561.024902 
	C702.939087,560.924011 700.040405,562.657349 698.500061,567.968140 
	C693.673584,584.607727 688.260193,601.068909 680.342224,616.558838 
	C678.309998,620.534485 679.892029,623.187683 682.804565,625.678467 
	C691.793091,633.365417 700.915833,640.904236 709.703613,648.814819 
	C718.730347,656.940369 718.698120,664.101318 710.234863,672.676636 
	C696.308350,686.787476 682.465271,700.980896 668.505188,715.058411 
	C659.378784,724.261475 652.440369,723.947693 643.645874,714.279480 
	C636.022583,705.898743 628.253540,697.649780 620.688354,689.217407 
	C617.541748,685.710083 614.819214,685.040955 610.427368,687.757324 
	C594.869934,697.379822 577.859192,703.668213 560.187622,708.217102 
	C553.348267,709.977661 552.340027,711.149109 552.308289,718.174744 
	C552.251038,730.839600 552.295654,743.504822 552.239014,756.169678 
	C552.187256,767.750000 545.837036,774.161011 534.362671,774.182373 
	C517.698181,774.213379 501.033508,774.198853 484.369080,774.147278 
	C473.703796,774.114258 467.800476,768.204041 467.716400,757.370239 
	C467.631073,746.372498 467.732422,735.373413 467.720490,724.374878 
	C467.718719,722.741150 468.018677,720.771057 466.133850,719.987488 
	C464.220398,719.192261 463.089996,720.883850 461.947968,722.022522 
	C435.050049,748.840942 408.158417,775.665649 381.297638,802.521301 
	C376.303223,807.514709 376.366394,807.674683 381.456268,812.795715 
	C387.205872,818.580811 393.150574,824.187622 398.644928,830.205566 
	C402.373962,834.289856 402.564636,839.382812 400.103149,844.215149 
	C397.519775,849.286743 393.064117,851.465271 387.342102,851.303894 
	C383.795807,851.203857 381.468109,849.145935 379.298126,846.823059 
	C357.220795,823.189148 333.264435,801.429932 310.824280,778.158630 
	C309.811523,777.108459 308.678070,776.174683 307.344086,774.951172 
	C302.911102,779.379944 298.688873,783.572327 294.494934,787.792725 
	C277.003845,805.394470 259.565521,823.049194 241.986725,840.562866 
	C239.410370,843.129700 239.749802,844.781738 242.132172,847.110413 
	C253.094269,857.825317 263.951202,868.647888 274.826141,879.451721 
	C277.422302,882.030884 280.112366,884.541565 281.406036,888.134888 
	C283.345032,893.520874 281.673920,899.740601 277.338409,903.016968 
	C272.680389,906.537048 267.621399,906.550293 262.479004,903.182678 
	C259.630127,901.317017 257.711273,898.551819 255.373398,896.193054 
	C226.753876,867.315369 198.132858,838.439209 169.541443,809.533752 
	C167.086182,807.051514 164.611359,804.531982 162.542786,801.736023 
	C158.624878,796.440369 159.238739,790.390442 163.806686,785.933777 
	C168.143600,781.702515 174.720901,781.165894 179.784271,785.179260 
	C187.106873,790.983398 193.458160,797.858215 200.010666,804.500854 
	C205.743301,810.312439 211.630035,815.974487 217.276550,821.867554 
	C219.921982,824.628601 221.942245,824.817444 224.675919,821.910278 
	C244.422028,800.911194 265.676300,781.386963 285.158875,760.118835 
	C287.968079,757.052246 287.832520,755.322144 285.065887,752.398743 
	C263.871796,730.002869 241.757980,708.531738 219.744736,686.957458 
	C214.151901,681.476135 208.557892,675.993652 203.072464,670.405701 
	C197.261169,664.485779 196.682831,656.566223 201.537613,651.601624 
	C207.151428,645.860840 215.304901,646.096252 221.502502,652.328552 
	C225.848953,656.699280 230.114761,661.157898 234.250427,665.727661 
	C236.836838,668.585632 238.861923,668.629578 241.613541,665.772827 
	C254.208679,652.696350 266.995453,639.804810 279.654510,626.789612 
	C292.778534,613.296387 305.776367,599.679810 318.972290,586.257690 
	C321.469604,583.717529 322.429810,581.254211 321.552307,577.794983 
	C320.694824,574.414612 320.200256,570.938660 319.621643,567.492004 
	C318.908447,563.243164 316.641907,561.132568 312.145203,561.162781 
	C299.647675,561.246765 287.148560,561.175598 274.650604,561.090759 
	C263.127167,561.012512 258.128784,556.147400 258.028687,544.688782 
	C257.880188,527.692017 257.837891,510.693665 257.871613,493.696198 
	C257.894287,482.281921 262.688568,477.658234 274.043488,477.563995 
	C286.371490,477.461670 298.699677,477.303833 311.025543,477.056946 
	C318.471985,476.907776 319.911713,475.862610 321.891327,468.617615 
	C325.939056,453.803436 330.544525,439.216125 338.235077,425.809082 
	C340.865997,421.222534 339.696930,417.600250 335.901184,414.356018 
	C328.048584,407.644470 320.207611,400.918274 312.437408,394.111877 
	C309.439758,391.486023 306.287262,388.881744 305.058441,384.848877 
	C303.373413,379.318848 304.195984,374.126434 308.292053,369.987488 
	C323.172974,354.950745 338.064392,339.919373 353.231903,325.173981 
	C358.612976,319.942657 367.524292,320.572906 373.102814,326.446686 
	C380.669739,334.414185 387.743103,342.850433 395.027130,351.086517 
	C396.461945,352.708862 397.944855,354.292328 399.313293,355.968994 
	C401.984406,359.241760 404.951447,359.571899 408.541626,357.395142 
	C424.740570,347.573547 442.163757,340.531036 460.275269,335.190552 
	C465.608582,333.617889 467.828705,330.667450 467.731567,325.089386 
	C467.505310,312.095184 467.654022,299.093872 467.699890,286.095642 
	C467.734253,276.359802 473.001190,270.846252 482.780975,270.771759 
	C500.610474,270.635864 518.443115,270.613251 536.271851,270.796173 
	C546.731873,270.903503 552.164551,276.658173 552.222595,287.151154 
	C552.292542,299.815918 552.313660,312.481354 552.258057,325.146088 
	C552.243225,328.517975 552.498535,331.472107 556.392151,332.693298 
	C560.404297,333.951569 564.119385,334.476379 567.453552,330.979919 
	C579.293701,318.563263 591.214783,306.223816 603.104431,293.854431 
	C610.699829,285.952576 618.707581,278.837769 630.290710,277.413849 
	C640.841980,276.116791 650.131836,278.327637 657.742737,286.125336 
	C660.302551,288.747986 663.093323,291.156036 665.532776,293.882141 
	C667.796509,296.411896 669.643250,296.707458 672.082825,294.072662 
	C675.360962,290.532196 678.914612,287.246826 682.594971,283.597046 
M402.046600,497.455048 
	C398.676361,510.024658 398.191223,522.816895 399.838776,535.623047 
	C400.417664,540.122498 399.313690,543.263000 396.246185,546.336670 
	C372.941650,569.687195 349.706177,593.106750 326.466217,616.521729 
	C319.893585,623.143799 313.409363,629.853821 306.818634,636.457642 
	C304.325897,638.955261 304.186859,641.070068 306.886749,643.604553 
	C310.770752,647.250671 314.459412,651.112244 318.114685,654.991943 
	C320.309052,657.321045 322.061340,657.400879 324.258301,654.895508 
	C328.101196,650.513123 332.145325,646.303772 336.182281,642.095947 
	C341.281128,636.781189 349.163910,636.705200 354.462982,641.834167 
	C359.976837,647.171021 360.138458,654.423035 354.774506,659.957947 
	C350.601654,664.263855 346.400055,668.546692 342.078094,672.701294 
	C339.887115,674.807373 339.906158,676.378235 342.190765,678.432434 
	C345.407318,681.324585 348.539124,684.355286 351.370636,687.618713 
	C354.144928,690.816162 356.413422,690.645813 359.139862,687.657043 
	C363.741211,682.613037 368.330994,677.537109 373.242767,672.803772 
	C378.090179,668.132507 383.153137,667.650085 388.276306,670.713867 
	C395.461365,675.010620 397.231995,683.904297 391.661652,690.503540 
	C387.270935,695.705322 382.343597,700.505554 377.280731,705.069336 
	C374.241119,707.809204 374.387115,709.608337 377.165222,712.306580 
	C385.529205,720.430176 393.848999,728.609680 401.894775,737.045227 
	C405.135651,740.443054 407.104065,740.664551 410.602325,737.116028 
	C441.011658,706.268921 471.698914,675.695923 502.130585,644.870728 
	C509.076416,637.835205 515.917603,631.444763 526.865356,632.446167 
	C529.404297,632.678406 532.070129,631.477966 534.682373,630.960876 
	C590.864441,619.841309 627.023438,565.843567 618.416748,509.067322 
	C617.410645,502.430237 618.472778,497.587738 623.189697,492.872681 
	C654.181702,461.892975 685.008667,430.748108 715.939453,399.707001 
	C722.655579,392.967041 723.061096,388.573944 716.471863,381.835175 
	C704.125305,369.208679 691.552490,356.803619 679.087646,344.292572 
	C666.624023,331.782715 654.082153,319.353638 641.994385,306.469238 
	C636.678467,300.802979 633.009949,300.866302 627.534058,306.248047 
	C620.054626,313.598816 612.709778,321.093658 605.489746,328.700043 
	C578.411743,357.227081 549.891907,384.323517 522.482422,412.519867 
	C519.689941,415.392517 516.457947,416.536346 512.551819,416.001160 
	C500.774261,414.387421 489.117828,415.860565 477.958771,419.201416 
	C438.558990,430.997040 412.330872,456.028564 402.046600,497.455048 
M327.438141,756.372192 
	C326.260162,758.614136 328.039734,759.778076 329.259827,761.013916 
	C337.906158,769.772095 346.643585,778.440674 355.249847,787.237793 
	C357.171661,789.202271 358.613159,789.446899 360.604950,787.387024 
	C368.349182,779.378235 376.108521,771.380615 384.026917,763.545288 
	C387.189514,760.416016 386.623779,758.071472 383.676636,755.231262 
	C375.654907,747.500793 367.644592,739.745667 359.952606,731.691956 
	C356.780914,728.371155 354.613983,728.257324 351.479431,731.578430 
	C343.721497,739.797913 335.719940,747.787537 327.438141,756.372192 
M301.073334,675.795776 
	C296.821503,671.145020 292.565125,666.498413 288.319885,661.841614 
	C286.395996,659.731262 284.463684,659.512695 282.354401,661.622437 
	C274.710907,669.267639 267.054230,676.899902 259.370483,684.504639 
	C257.390564,686.464172 257.629456,688.137573 259.532776,690.022766 
	C263.550323,694.002136 267.549133,698.008911 271.371307,702.173645 
	C273.431885,704.418823 275.058289,704.472168 277.127441,702.272522 
	C281.115723,698.032776 285.307343,693.983643 289.273224,689.723816 
	C293.323639,685.373108 298.102905,681.664490 301.073334,675.795776 
M327.313629,700.211670 
	C326.171295,698.998901 325.009125,697.804077 323.891754,696.568726 
	C322.547333,695.082336 321.121857,694.749756 319.602417,696.250244 
	C311.427399,704.323059 303.245697,712.389282 295.123932,720.515442 
	C293.950439,721.689575 292.708679,723.324707 294.346985,724.878052 
	C299.131714,729.414551 304.070740,733.788330 308.315582,737.649475 
	C314.936035,731.421631 322.211609,725.061340 328.914978,718.146301 
	C336.898254,709.910950 336.685425,709.704895 328.473267,701.455444 
	C328.238190,701.219299 328.012085,700.974182 327.313629,700.211670 
z"/>
<path fill="#000000" opacity="1.000000" stroke="none" 
	d="
M566.523804,571.496216 
	C537.942627,609.158936 479.373993,608.753174 451.389496,570.969421 
	C425.980774,536.663330 431.441467,489.841858 465.562073,464.632507 
	C499.481689,439.571625 549.013611,447.359894 572.140991,485.154877 
	C589.041382,512.773682 586.192810,548.233765 566.523804,571.496216 
M461.667511,519.150696 
	C458.081512,545.472595 478.698456,575.054810 511.741791,572.640991 
	C531.104614,571.226562 545.654297,561.497009 553.135986,544.089966 
	C560.406372,527.174438 559.661438,509.768616 546.754456,494.861115 
	C533.145996,479.143433 515.840454,473.228302 495.971313,479.283722 
	C477.055176,485.048676 464.796631,497.911163 461.667511,519.150696 
z"/>
</svg>